<?xml version="1.0" encoding="utf-8"?>
<!-- Generator: Adobe Illustrator 23.0.5, SVG Export Plug-In . SVG Version: 6.00 Build 0)  -->
<svg version="1.1" id="Layer_1" xmlns="http://www.w3.org/2000/svg" xmlns:xlink="http://www.w3.org/1999/xlink" x="0px" y="0px"
	 viewBox="0 0 200 80" style="enable-background:new 0 0 200 80;" xml:space="preserve">
<style type="text/css">
	.st0{fill:#4F46E5;}
	.st1{fill:#1F2937;}
</style>
<g>
	<g>
		<g>
			<g>
				<path class="st0" d="M61.89,55.71l-33.8-27.66c-0.46-0.37-1.09-0.45-1.63-0.2c-0.54,0.25-0.88,0.79-0.88,1.39v46.09
					c0,0.68,0.45,1.28,1.09,1.47c0.15,0.04,0.3,0.06,0.45,0.06c0.5,0,0.99-0.25,1.28-0.69l11.84-17.75h20.69
					c0.65,0,1.23-0.41,1.45-1.02C62.59,56.81,62.4,56.12,61.89,55.71z"/>
			</g>
		</g>
		<g>
			<g>
				<path class="st0" d="M27.12,3.13c-0.85,0-1.54,0.69-1.54,1.54v12.29c0,0.85,0.69,1.54,1.54,1.54c0.85,0,1.54-0.69,1.54-1.54
					V4.66C28.66,3.81,27.97,3.13,27.12,3.13z"/>
			</g>
		</g>
		<g>
			<g>
				<path class="st0" d="M14.83,27.71H2.54C1.69,27.71,1,28.4,1,29.24c0,0.85,0.69,1.54,1.54,1.54h12.29c0.85,0,1.54-0.69,1.54-1.54
					C16.36,28.4,15.68,27.71,14.83,27.71z"/>
			</g>
		</g>
		<g>
			<g>
				<path class="st0" d="M51.7,27.71H39.41c-0.85,0-1.54,0.69-1.54,1.54c0,0.85,0.69,1.54,1.54,1.54H51.7
					c0.85,0,1.54-0.69,1.54-1.54C53.24,28.4,52.55,27.71,51.7,27.71z"/>
			</g>
		</g>
		<g>
			<g>
				<path class="st0" d="M19.51,19.47l-8.69-8.69c-0.6-0.6-1.57-0.6-2.17,0c-0.6,0.6-0.6,1.57,0,2.17l8.69,8.69
					c0.3,0.3,0.69,0.45,1.09,0.45c0.39,0,0.79-0.15,1.08-0.45C20.11,21.04,20.11,20.07,19.51,19.47z"/>
			</g>
		</g>
		<g>
			<g>
				<path class="st0" d="M19.51,36.85c-0.6-0.6-1.57-0.6-2.17,0l-8.69,8.69c-0.6,0.6-0.6,1.57,0,2.17c0.3,0.3,0.69,0.45,1.09,0.45
					c0.39,0,0.79-0.15,1.08-0.45l8.69-8.69C20.11,38.43,20.11,37.45,19.51,36.85z"/>
			</g>
		</g>
		<g>
			<g>
				<path class="st0" d="M45.59,10.78c-0.6-0.6-1.57-0.6-2.17,0l-8.69,8.69c-0.6,0.6-0.6,1.57,0,2.17c0.3,0.3,0.69,0.45,1.09,0.45
					c0.39,0,0.79-0.15,1.08-0.45l8.69-8.69C46.19,12.35,46.19,11.38,45.59,10.78z"/>
			</g>
		</g>
	</g>
	<g>
		<path class="st1" d="M89.25,44.31c0,6.22-5.07,11.24-11.01,11.24c-5.93,0-11.01-5.02-11.01-11.24s5.07-11.24,11.01-11.24
			C84.18,33.06,89.25,38.09,89.25,44.31z M72.74,44.31c0,3.64,2.39,5.98,5.5,5.98c3.11,0,5.5-2.34,5.5-5.98
			c0-3.64-2.39-5.98-5.5-5.98C75.14,38.33,72.74,40.67,72.74,44.31z"/>
		<path class="st1" d="M93.31,33.3h4.07l0.96,2.15c0.53-0.43,1.15-0.86,1.77-1.2c1.1-0.57,2.58-1.2,4.45-1.2
			c5.22,0,8.85,3.59,8.85,9.33v12.92h-5.5v-12.2c0-2.87-1.87-4.79-4.55-4.79c-2.68,0-4.55,1.91-4.55,4.79v12.2h-5.5V33.3z"/>
		<path class="st1" d="M138.05,48.61c-1.15,3.3-4.83,6.94-9.81,6.94c-5.93,0-11.01-5.02-11.01-11.24s5.07-11.24,11.01-11.24
			c5.74,0,10.53,4.55,10.53,11.24c0,0.53-0.1,1.01-0.14,1.44l-0.1,0.72h-15.31c0.53,2.15,2.15,3.83,5.02,3.83
			c1.48,0,2.39-0.38,3.11-0.81c0.38-0.24,0.72-0.53,0.96-0.86H138.05z M133.5,42.63c-0.53-2.44-2.39-4.31-5.26-4.31
			c-2.87,0-4.74,1.87-5.26,4.31H133.5z"/>
		<path class="st1" d="M142.83,25.17h5.5v10.05c0.43-0.38,0.96-0.72,1.53-1.05c1-0.53,2.34-1.1,4.21-1.1
			c5.5,0,10.29,4.74,10.29,11.24s-4.78,11.24-10.29,11.24c-1.91,0-3.45-0.57-4.55-1.2c-0.62-0.33-1.2-0.77-1.67-1.2l-0.96,2.15
			h-4.07V25.17z M158.86,44.31c0-3.64-2.39-5.98-5.5-5.98c-3.11,0-5.5,2.34-5.5,5.98c0,3.64,2.39,5.98,5.5,5.98
			C156.47,50.29,158.86,47.94,158.86,44.31z"/>
		<path class="st1" d="M168.18,27.56c0-1.67,1.44-3.11,3.11-3.11c1.68,0,3.11,1.44,3.11,3.11c0,1.68-1.44,3.11-3.11,3.11
			C169.62,30.67,168.18,29.23,168.18,27.56z M168.42,33.3h5.5v22.01h-5.5V33.3z"/>
		<path class="st1" d="M200,44.31c0,6.22-5.07,11.24-11.01,11.24c-5.93,0-11.01-5.02-11.01-11.24s5.07-11.24,11.01-11.24
			C194.93,33.06,200,38.09,200,44.31z M183.49,44.31c0,3.64,2.39,5.98,5.5,5.98s5.5-2.34,5.5-5.98c0-3.64-2.39-5.98-5.5-5.98
			S183.49,40.67,183.49,44.31z"/>
	</g>
</g>
</svg>
